<?xml version="1.0" standalone="no"?><!DOCTYPE svg PUBLIC "-//W3C//DTD SVG 1.1//EN" "http://www.w3.org/Graphics/SVG/1.1/DTD/svg11.dtd"><svg t="1501722075533" class="icon" style="" viewBox="0 0 1024 1024" version="1.1" xmlns="http://www.w3.org/2000/svg" p-id="2607" xmlns:xlink="http://www.w3.org/1999/xlink" width="200" height="200"><defs><style type="text/css"></style></defs><path d="M563.165014 989.850169 119.439076 989.850169C91.21128 989.850169 68.239929 966.878819 68.239929 938.651022L68.239929 85.331911C68.239929 57.104115 91.21128 34.132764 119.439076 34.132764L658.497825 34.132764 824.161197 199.796137C830.834153 206.469092 841.620106 206.469092 848.293062 199.796137 854.966017 193.123181 854.966017 182.337228 848.293062 175.664272L677.62924 5.00045C674.437826 1.79197 670.085899 0 665.563307 0L119.439076 0C72.38706 0 34.107165 38.279895 34.107165 85.331911L34.107165 938.651022C34.107165 985.703038 72.38706 1023.982934 119.439076 1023.982934L563.165014 1023.982934C572.585657 1023.982934 580.231396 1016.337194 580.231396 1006.916551 580.231396 997.495908 572.585657 989.850169 563.165014 989.850169" p-id="2608" fill="#1296db"></path><path d="M682.62969 187.730204 682.62969 102.398293C682.62969 92.97765 674.98395 85.331911 665.563307 85.331911 656.142664 85.331911 648.496925 92.97765 648.496925 102.398293L648.496925 187.730204C648.496925 234.78222 686.77682 273.062116 733.828836 273.062116L887.426276 273.062116 887.426276 597.323378C887.426276 606.744021 895.072015 614.38976 904.492658 614.38976 913.913301 614.38976 921.559041 606.744021 921.559041 597.323378L921.559041 255.995733C921.559041 246.57509 913.913301 238.929351 904.492658 238.929351L733.828836 238.929351C705.60104 238.929351 682.62969 215.958001 682.62969 187.730204" p-id="2609" fill="#1296db"></path><path d="M426.633956 341.327645 597.297778 341.327645C606.718421 341.327645 614.364161 333.681905 614.364161 324.261262 614.364161 314.840619 606.718421 307.19488 597.297778 307.19488L426.633956 307.19488C417.213313 307.19488 409.567574 314.840619 409.567574 324.261262 409.567574 333.681905 417.213313 341.327645 426.633956 341.327645" p-id="2610" fill="#1296db"></path><path d="M546.098632 426.659556C546.098632 417.238913 538.452892 409.593173 529.032249 409.593173L426.633956 409.593173C417.213313 409.593173 409.567574 417.238913 409.567574 426.659556 409.567574 436.080199 417.213313 443.725938 426.633956 443.725938L529.032249 443.725938C538.452892 443.725938 546.098632 436.080199 546.098632 426.659556" p-id="2611" fill="#1296db"></path><path d="M733.828836 409.593173 597.297778 409.593173C587.877135 409.593173 580.231396 417.238913 580.231396 426.659556 580.231396 436.080199 587.877135 443.725938 597.297778 443.725938L733.828836 443.725938C743.249479 443.725938 750.895218 436.080199 750.895218 426.659556 750.895218 417.238913 743.249479 409.593173 733.828836 409.593173" p-id="2612" fill="#1296db"></path><path d="M426.633956 511.991467C417.213313 511.991467 409.567574 519.637206 409.567574 529.057849 409.567574 538.478492 417.213313 546.124231 426.633956 546.124231L460.766721 546.124231C470.187364 546.124231 477.833103 538.478492 477.833103 529.057849 477.833103 519.637206 470.187364 511.991467 460.766721 511.991467L426.633956 511.991467" p-id="2613" fill="#1296db"></path><path d="M631.430543 716.788054C622.0099 716.788054 614.364161 724.433793 614.364161 733.854436 614.364161 743.275079 622.0099 750.920818 631.430543 750.920818L665.563307 750.920818C674.98395 750.920818 682.62969 743.275079 682.62969 733.854436 682.62969 724.433793 674.98395 716.788054 665.563307 716.788054L631.430543 716.788054" p-id="2614" fill="#1296db"></path><path d="M529.032249 546.124231 699.696072 546.124231C709.116715 546.124231 716.762454 538.478492 716.762454 529.057849 716.762454 519.637206 709.116715 511.991467 699.696072 511.991467L529.032249 511.991467C519.611606 511.991467 511.965867 519.637206 511.965867 529.057849 511.965867 538.478492 519.611606 546.124231 529.032249 546.124231" p-id="2615" fill="#1296db"></path><path d="M563.165014 614.38976 426.633956 614.38976C417.213313 614.38976 409.567574 622.035499 409.567574 631.456142 409.567574 640.876785 417.213313 648.522525 426.633956 648.522525L563.165014 648.522525C572.585657 648.522525 580.231396 640.876785 580.231396 631.456142 580.231396 622.035499 572.585657 614.38976 563.165014 614.38976" p-id="2616" fill="#1296db"></path><path d="M563.165014 716.788054 426.633956 716.788054C417.213313 716.788054 409.567574 724.433793 409.567574 733.854436 409.567574 743.275079 417.213313 750.920818 426.633956 750.920818L563.165014 750.920818C572.585657 750.920818 580.231396 743.275079 580.231396 733.854436 580.231396 724.433793 572.585657 716.788054 563.165014 716.788054" p-id="2617" fill="#1296db"></path><path d="M750.895218 631.456142C750.895218 622.035499 743.249479 614.38976 733.828836 614.38976L631.430543 614.38976C622.0099 614.38976 614.364161 622.035499 614.364161 631.456142 614.364161 640.876785 622.0099 648.522525 631.430543 648.522525L733.828836 648.522525C743.249479 648.522525 750.895218 640.876785 750.895218 631.456142" p-id="2618" fill="#1296db"></path><path d="M563.165014 819.186347 426.633956 819.186347C417.213313 819.186347 409.567574 826.832086 409.567574 836.252729 409.567574 845.673372 417.213313 853.319111 426.633956 853.319111L563.165014 853.319111C572.585657 853.319111 580.231396 845.673372 580.231396 836.252729 580.231396 826.832086 572.585657 819.186347 563.165014 819.186347" p-id="2619" fill="#1296db"></path><path d="M969.498508 702.98135 935.365744 668.848586C909.134714 642.617556 869.165247 642.668756 842.968351 668.848586L619.364611 892.452326C616.173197 895.643739 614.364161 899.995667 614.364161 904.518258L614.364161 1006.916551C614.364161 1016.337194 622.0099 1023.982934 631.430543 1023.982934L733.828836 1023.982934C738.351427 1023.982934 742.703355 1022.173897 745.894768 1018.982484L969.498508 795.378744C996.685255 768.191997 996.685255 730.185164 969.498508 702.98135L969.498508 702.98135ZM750.895218 965.718305 723.827936 938.651022 872.100665 790.378294 899.167947 817.445576 750.895218 965.718305 750.895218 965.718305ZM699.696072 914.519158 672.62879 887.451876 820.901518 739.179147 847.968801 766.246429 699.696072 914.519158 699.696072 914.519158ZM648.496925 989.850169 648.496925 911.58374 726.763354 989.850169 648.496925 989.850169 648.496925 989.850169ZM945.366644 771.246879 923.299812 793.313711 845.033383 715.047283 867.100215 692.98045C880.582657 679.515075 897.683172 679.446809 911.233879 692.98045L945.366644 727.113215C959.173347 740.936984 959.173347 757.440176 945.366644 771.246879L945.366644 771.246879Z" p-id="2620" fill="#1296db"></path><path d="M341.302045 324.261262C341.302045 314.840619 333.656306 307.19488 324.235663 307.19488L221.837369 307.19488C212.416726 307.19488 204.770987 314.840619 204.770987 324.261262L204.770987 426.659556C204.770987 436.080199 212.416726 443.725938 221.837369 443.725938L324.235663 443.725938C333.656306 443.725938 341.302045 436.080199 341.302045 426.659556L341.302045 324.261262 341.302045 324.261262ZM238.903752 341.327645 307.169281 341.327645 307.169281 409.593173 238.903752 409.593173 238.903752 341.327645Z" p-id="2621" fill="#1296db"></path><path d="M204.770987 836.252729C204.770987 845.673372 212.416726 853.319111 221.837369 853.319111L324.235663 853.319111C333.656306 853.319111 341.302045 845.673372 341.302045 836.252729L341.302045 733.854436C341.302045 724.433793 333.656306 716.788054 324.235663 716.788054L221.837369 716.788054C212.416726 716.788054 204.770987 724.433793 204.770987 733.854436L204.770987 836.252729 204.770987 836.252729ZM238.903752 750.920818 307.169281 750.920818 307.169281 819.186347 238.903752 819.186347 238.903752 750.920818Z" p-id="2622" fill="#1296db"></path><path d="M243.904202 643.522075C247.112681 646.730554 251.464609 648.522525 255.970134 648.522525 256.533324 648.522525 257.079449 648.505458 257.659706 648.437193 262.745488 647.942268 267.336344 645.177514 270.169364 640.927985L338.434893 538.529691C343.657206 530.679155 341.540974 520.080932 333.707505 514.858619 325.839903 509.61924 315.275812 511.752537 310.036433 519.586007L253.324845 604.661922 233.903302 585.257446C227.230346 578.58449 216.444393 578.58449 209.771437 585.257446 203.098482 591.930401 203.098482 602.716355 209.771437 609.38931L243.904202 643.522075" p-id="2623" fill="#1296db"></path></svg>